<svg width="32" height="32" viewBox="0 0 32 32" xmlns="http://www.w3.org/2000/svg"><title>ic_delivery_truck</title><g transform="translate(1 1)" stroke="#999" stroke-width="1.693" fill-rule="nonzero" fill="none" stroke-linecap="round" stroke-linejoin="round"><path d="M28.056 15.188h.522c.775.007 1.41-.62 1.422-1.407V8.53c.002-.61-.385-1.153-.958-1.342l-2.5-.844c-.468-.16-.88-.453-1.19-.844L21.743.976C21.248.36 20.506 0 19.722 0H1.39C.627 0 .01.62 0 1.39v12.408c.01.77.628 1.39 1.39 1.39h26.667z"/><ellipse fill="#EEF2F5" opacity=".99" cx="4.275" cy="15.508" rx="2.331" ry="2.36"/><ellipse fill="#EEF2F5" opacity=".99" cx="25.753" cy="15.508" rx="2.331" ry="2.36"/><path fill="#999" d="M21.742 6.843h-6.5V2.908h3.675z"/></g></svg>