<svg width="48" height="48" viewBox="0 0 48 48" xmlns="http://www.w3.org/2000/svg"><title>ic_service_gift</title><path d="M32.608 9.478c.48-.824.774-1.772.774-2.795 0-3.088-2.504-5.59-5.59-5.59-1.682 0-3.166.758-4.192 1.926-1.026-1.17-2.513-1.927-4.193-1.927-3.088 0-5.59 2.502-5.59 5.59 0 1.023.294 1.97.775 2.795H2.637v8.385h2.795v27.951H41.767V17.864h2.795V9.478H32.608zM27.792 3.89c1.546 0 2.795 1.253 2.795 2.796 0 1.546-1.25 2.795-2.795 2.795s-2.795-1.248-2.795-2.794c0-1.543 1.25-2.795 2.795-2.795zm-8.385 0c1.543 0 2.795 1.253 2.795 2.796 0 1.546-1.252 2.795-2.795 2.795-1.545 0-2.795-1.248-2.795-2.794 0-1.543 1.253-2.795 2.795-2.795zm2.795 39.128H8.227V31.836h13.975v11.182zm0-13.977H8.227V17.864h13.975V29.04zm16.77 13.978H24.997V31.836h13.975v11.182zm0-13.977H24.997V17.864h13.975V29.04zm2.795-13.972H5.432v-2.795h36.336v2.795z" stroke="#FFF" stroke-width="1.44" fill="#666" fill-rule="nonzero"/></svg>