<svg width="48" height="48" viewBox="0 0 48 48" xmlns="http://www.w3.org/2000/svg"><title>ic_service_cod</title><g stroke="#666" fill="none" fill-rule="evenodd" stroke-linecap="round" stroke-linejoin="round"><path d="M25.538 12.19s9.53 1.295 11.32 3.086c1.792 1.79 4.118 11.156 5.147 14.408 1.02 2.586 2.406 5.013 4.116 7.204-2.102 4.964-6.957 8.2-12.348 8.233-3.438-5.906-7.884-5.968-10.292-9.26-1.442-1.725-2.177-3.93-2.058-6.176-.47-2.604-1.526-5.067-3.088-7.204-1.708-2.49-3.046-6.175-1.03-8.233 2.018-2.058 6.3 2.923 7.205 5.146.905 2.223 2.88 6.175 5.145 7.204 1.297-.865 1.503-2.697 2.058-3.088-.41-1.006-.754-2.038-1.03-3.088l-5.145-2.06" stroke-width="1.44"/><path d="M25.64 21.74V5.086C25.64 3.382 24.26 2 22.555 2H6.087C4.382 2 3 3.382 3 5.087v28.817c0 1.705 1.382 3.087 3.087 3.087h16.467c.535 0 1.06-.142 1.523-.41" stroke-width="1.44"/><path d="M8.144 9.924h6.88M12.272 17.555l-4.128-4.38h2.752c1.52 0 2.752-1.307 2.752-2.92 0-1.612-1.232-2.92-2.752-2.92H8.144h6.88" stroke-width="1.2"/></g></svg>