<svg width="48" height="48" viewBox="0 0 48 48" xmlns="http://www.w3.org/2000/svg"><title>ic_service_return</title><g fill="none" fill-rule="evenodd"><path d="M37.293 15.388c.16-.333.177-.726-.032-1.07L31.75 2.915c-.204-.342-.563-.486-.95-.52-.063-.012-.122-.04-.193-.04H12.42c-.07 0-.13.028-.196.042-.382.032-.744.176-.95.518l-5.51 11.403c-.206.342-.19.735-.03 1.07-.064.212-.132.427-.132.662v20.54c0 1.26 1.018 2.283 2.273 2.283h27.28c1.256 0 2.272-1.022 2.272-2.284V16.05c0-.235-.066-.45-.134-.662zM29.9 4.638l4.408 9.13h-8.623l-1.52-9.13H29.9zm-8.386 0l2.274 9.13H19.24l2.274-9.13zM19.24 16.05h4.548v9.127H19.24V16.05zM13.13 4.638h5.736l-1.516 9.13h-8.63l4.41-9.13zM35.154 35.45c0 .627-.512 1.14-1.137 1.14H9.012c-.628 0-1.137-.513-1.137-1.14V17.19c0-.63.51-1.14 1.137-1.14h7.956v11.412h9.093V16.05h7.957c.625 0 1.137.51 1.137 1.14v18.26z" stroke="#FFF" stroke-width=".8" fill="#666" fill-rule="nonzero"/><path fill="#FFF" d="M34.117 25.156h4.063v4.086h-4.063zM20.574 35.372h4.063v4.086h-4.063z"/><path d="M44.19 34.478h-7.24v-5.055c0-.798-.545-1.09-1.208-.646L24.38 36.61c-.332.22-.5.513-.5.805 0 .29.168.584.5.804l11.362 7.833c.663.443 1.207.152 1.207-.646v-5.034h7.24c1.6 0 2.902-1.32 2.902-2.948s-1.3-2.947-2.9-2.947z" fill="#666" fill-rule="nonzero"/><path d="M44.19 38.9H35.5v5.247l-9.712-6.732 9.71-6.733v5.27h8.693c.8 0 1.45.66 1.45 1.472 0 .816-.65 1.475-1.45 1.475z" fill="#FFF"/></g></svg>