<svg width="48" height="48" viewBox="0 0 48 48" xmlns="http://www.w3.org/2000/svg"><title>ic_service_exchange</title><g fill="none" fill-rule="evenodd"><path d="M36.815 14.608c.15-.314.17-.683-.03-1.008l-5.26-10.738c-.194-.322-.537-.458-.906-.49-.06-.01-.118-.037-.185-.037H13.082c-.068 0-.126.026-.19.04-.363.03-.708.165-.906.487L6.73 13.6c-.197.322-.182.692-.03 1.008-.06.2-.126.402-.126.623v19.343c0 1.19.972 2.152 2.17 2.152h26.03c1.2 0 2.17-.963 2.17-2.152V15.23c0-.22-.064-.422-.13-.622zM29.76 4.485l4.206 8.597h-8.23L24.29 4.485h5.472zm-8.002 0l2.17 8.597h-4.34l2.17-8.597zm-2.17 10.746h4.34v8.596h-4.34V15.23zM13.757 4.486h5.473l-1.448 8.597H9.548l4.208-8.597zM34.773 33.5c0 .592-.488 1.073-1.084 1.073H9.827c-.6 0-1.085-.48-1.085-1.072V16.307c0-.593.486-1.075 1.085-1.075h7.592V25.98h8.677V15.23h7.592c.595 0 1.083.483 1.083 1.076V33.5z" stroke="#FFF" stroke-width=".8" fill="#666" fill-rule="nonzero"/><path fill="#FFF" d="M11.17 14.834h19.383V27.02H11.17z"/><path fill="#FFF" d="M29.26 18.35h12.663v12.185H29.26zM22.153 32.144h19.384V44.33H22.153z"/><path d="M38.873 21.52h-6.91v-4.762c0-.75-.52-1.025-1.15-.608l-10.844 7.376c-.317.208-.476.483-.476.76 0 .272.16.55.475.756L30.81 32.42c.632.416 1.152.143 1.152-.61v-4.74h6.91c1.526 0 2.768-1.243 2.768-2.776 0-1.532-1.24-2.775-2.77-2.775z" fill="#666" fill-rule="nonzero"/><path d="M38.873 25.683H30.58v4.94l-9.267-6.338 9.266-6.34v4.96h8.293c.764 0 1.385.622 1.385 1.388 0 .768-.62 1.39-1.385 1.39z" fill="#FFF"/><g><path d="M28.048 35.15h6.91v-4.76c0-.75.52-1.025 1.152-.608l10.843 7.376c.316.208.475.483.475.76 0 .272-.16.55-.475.756L36.11 46.05c-.633.418-1.152.145-1.152-.607v-4.74h-6.91c-1.526 0-2.768-1.244-2.768-2.777 0-1.532 1.24-2.775 2.768-2.775z" fill="#666" fill-rule="nonzero"/><path d="M28.048 39.315h8.294v4.94l9.267-6.338-9.268-6.34v4.96h-8.294c-.764 0-1.384.622-1.384 1.388 0 .768.62 1.39 1.384 1.39z" fill="#FFF"/></g></g></svg>