<?xml version="1.0" encoding="UTF-8"?>
<svg width="1280px" height="1227px" viewBox="0 0 1280 1227" version="1.1" xmlns="http://www.w3.org/2000/svg" xmlns:xlink="http://www.w3.org/1999/xlink">
    <!-- Generator: Sketch 47.1 (45422) - http://www.bohemiancoding.com/sketch -->
    <title>lux_transition_anim_image</title>
    <desc>Created with Sketch.</desc>
    <defs></defs>
    <g id="Page-4" stroke="none" stroke-width="1" fill="none" fill-rule="evenodd">
        <g id="luxury-catalog-copy-6" fill="#FF7200">
            <path d="M-12.3295983,0.079883015 C-9.5407838,0.0724003335 49.0241157,-0.518044639 100.354434,22.2441289 C142.333477,40.859526 154.747741,62.5198468 192.126053,83.0654871 C215.423461,95.8713134 246.365144,77.6509912 321.233924,77.6509912 C356.378845,77.6509912 395.648527,84.4196846 433.406245,120.298618 C476.083315,160.852121 515.357944,225.402562 575.523561,227.384172 C599.440928,228.171912 627.37274,221.505361 648.108608,210.355698 C668.844476,199.206035 687.121974,190.088564 710.854508,184.130141 C724.754627,180.640299 771.268802,178.390935 808.630272,204.040896 C831.256641,219.574693 858.02909,272.98761 889.10111,279.097317 C937.061206,288.527733 940.884065,244.523973 972.448139,235.300313 C1006.88021,225.238567 1032.04541,242.996452 1046.54835,232.546671 C1069.31816,216.140375 1090.12803,195.848267 1123.928,197.503559 C1163.32194,199.432806 1183.17625,189.035049 1250.32508,292.748393 C1257.89463,304.439793 1267.78627,312.775189 1280,317.754582 L1280,1234 L-41.7940432,1234 C-44.1633935,504.882031 -41.7077928,100.963407 -34.4272411,22.2441289 C-32.1318597,-2.57415067 -14.938782,0.0868837284 -12.3295983,0.079883015 Z" id="lux_transition_anim_image"></path>
        </g>
    </g>
</svg>